# xmcd
#
# Track frame offsets: 
#        150
#        14599
#        32155
#        49056
#        61785
#        77818
#        99088
#        120044
#        142219
#        159417
#        178843
#        195932
#        213926
#        233887
#
# Disc length: 3573 seconds
#
# Revision: 0
# Processed by: cddbd v1.5.2PL0 Copyright (c) Steve Scherf et al.
# Submitted via: ExactAudioCopy v0.99pb5
#
DISCID=af0df30e
DTITLE=Incubus - Playlist Very Best Of
DYEAR=2000
DGENRE=Alt. Rock
TTITLE0=A Certain Shade Of Green
TTITLE1=Drive
TTITLE2=Pardon Me
TTITLE3=I Miss You
TTITLE4=Wish You Were Here
TTITLE5=Nice To Know You
TTITLE6=Warning
TTITLE7=Meglomaniac
TTITLE8=Talk Shows On Mute
TTITLE9=Dig
TTITLE10=Anna-Molly
TTITLE11=Love Hurts (Acoustic)
TTITLE12=Promises, Promises
TTITLE13=In The Company Of Wolves
EXTD=
EXTT0=
EXTT1=
EXTT2=
EXTT3=
EXTT4=
EXTT5=
EXTT6=
EXTT7=
EXTT8=
EXTT9=
EXTT10=
EXTT11=
EXTT12=
EXTT13=
PLAYORDER=
